<?xml version="1.0" encoding="UTF-8"?>
<svg xmlns="http://www.w3.org/2000/svg" xmlns:xlink="http://www.w3.org/1999/xlink" width="300px" height="111px" viewBox="0 0 415 154" version="1.1">
<defs>
<clipPath id="clip1">
  <path d="M 271 8 L 360 8 L 360 94 L 271 94 Z M 271 8 "/>
</clipPath>
<clipPath id="clip2">
  <path d="M 353.1875 22.472656 C 340.285156 5.332031 312.945312 4.171875 292.125 19.878906 C 271.300781 35.589844 264.878906 62.214844 277.78125 79.351562 C 290.683594 96.492188 318.023438 97.652344 338.847656 81.945312 C 359.667969 66.234375 366.089844 39.609375 353.1875 22.472656 Z M 353.1875 22.472656 "/>
</clipPath>
<clipPath id="clip3">
  <path d="M 224.679688 42.414062 L 332.28125 -38.757812 L 406.738281 60.148438 L 299.136719 141.316406 Z M 224.679688 42.414062 "/>
</clipPath>
<clipPath id="clip4">
  <path d="M 353.1875 22.472656 C 340.285156 5.332031 312.945312 4.171875 292.125 19.878906 C 271.300781 35.589844 264.878906 62.214844 277.78125 79.351562 C 290.683594 96.492188 318.023438 97.652344 338.847656 81.945312 C 359.667969 66.234375 366.089844 39.609375 353.1875 22.472656 Z M 353.1875 22.472656 "/>
</clipPath>
<clipPath id="clip5">
  <path d="M 254.640625 49.015625 L 329.988281 -7.820312 L 376.753906 54.304688 L 301.410156 111.140625 Z M 254.640625 49.015625 "/>
</clipPath>
<clipPath id="clip6">
  <path d="M 271 8 L 360 8 L 360 94 L 271 94 Z M 271 8 "/>
</clipPath>
<clipPath id="clip7">
  <path d="M 353.1875 22.472656 C 340.285156 5.332031 312.945312 4.171875 292.125 19.878906 C 271.300781 35.589844 264.878906 62.214844 277.78125 79.351562 C 290.683594 96.492188 318.023438 97.652344 338.847656 81.945312 C 359.667969 66.234375 366.089844 39.609375 353.1875 22.472656 Z M 353.1875 22.472656 "/>
</clipPath>
<clipPath id="clip8">
  <path d="M 224.679688 42.414062 L 332.28125 -38.757812 L 406.738281 60.148438 L 299.136719 141.316406 Z M 224.679688 42.414062 "/>
</clipPath>
<clipPath id="clip9">
  <path d="M 353.1875 22.472656 C 340.285156 5.332031 312.945312 4.171875 292.125 19.878906 C 271.300781 35.589844 264.878906 62.214844 277.78125 79.351562 C 290.683594 96.492188 318.023438 97.652344 338.847656 81.945312 C 359.667969 66.234375 366.089844 39.609375 353.1875 22.472656 Z M 353.1875 22.472656 "/>
</clipPath>
<clipPath id="clip10">
  <path d="M 265.378906 86.324219 L 291.382812 -4.457031 L 366.082031 16.984375 L 340.078125 107.765625 Z M 265.378906 86.324219 "/>
</clipPath>
<clipPath id="clip11">
  <path d="M 271 8 L 360 8 L 360 94 L 271 94 Z M 271 8 "/>
</clipPath>
<clipPath id="clip12">
  <path d="M 353.1875 22.472656 C 340.285156 5.332031 312.945312 4.171875 292.125 19.878906 C 271.300781 35.589844 264.878906 62.214844 277.78125 79.351562 C 290.683594 96.492188 318.023438 97.652344 338.847656 81.945312 C 359.667969 66.234375 366.089844 39.609375 353.1875 22.472656 Z M 353.1875 22.472656 "/>
</clipPath>
<clipPath id="clip13">
  <path d="M 224.679688 42.414062 L 332.28125 -38.757812 L 406.738281 60.148438 L 299.136719 141.316406 Z M 224.679688 42.414062 "/>
</clipPath>
<clipPath id="clip14">
  <path d="M 353.1875 22.472656 C 340.285156 5.332031 312.945312 4.171875 292.125 19.878906 C 271.300781 35.589844 264.878906 62.214844 277.78125 79.351562 C 290.683594 96.492188 318.023438 97.652344 338.847656 81.945312 C 359.667969 66.234375 366.089844 39.609375 353.1875 22.472656 Z M 353.1875 22.472656 "/>
</clipPath>
<clipPath id="clip15">
  <path d="M 254.640625 49.015625 L 329.988281 -7.820312 L 376.753906 54.304688 L 301.410156 111.140625 Z M 254.640625 49.015625 "/>
</clipPath>
<clipPath id="clip16">
  <path d="M 271 8 L 360 8 L 360 94 L 271 94 Z M 271 8 "/>
</clipPath>
<clipPath id="clip17">
  <path d="M 353.1875 22.472656 C 340.285156 5.332031 312.945312 4.171875 292.125 19.878906 C 271.300781 35.589844 264.878906 62.214844 277.78125 79.351562 C 290.683594 96.492188 318.023438 97.652344 338.847656 81.945312 C 359.667969 66.234375 366.089844 39.609375 353.1875 22.472656 Z M 353.1875 22.472656 "/>
</clipPath>
<clipPath id="clip18">
  <path d="M 224.679688 42.414062 L 332.28125 -38.757812 L 406.738281 60.148438 L 299.136719 141.316406 Z M 224.679688 42.414062 "/>
</clipPath>
<clipPath id="clip19">
  <path d="M 353.1875 22.472656 C 340.285156 5.332031 312.945312 4.171875 292.125 19.878906 C 271.300781 35.589844 264.878906 62.214844 277.78125 79.351562 C 290.683594 96.492188 318.023438 97.652344 338.847656 81.945312 C 359.667969 66.234375 366.089844 39.609375 353.1875 22.472656 Z M 353.1875 22.472656 "/>
</clipPath>
<clipPath id="clip20">
  <path d="M 265.378906 86.324219 L 291.382812 -4.457031 L 366.082031 16.984375 L 340.078125 107.765625 Z M 265.378906 86.324219 "/>
</clipPath>
<clipPath id="clip21">
  <path d="M 271 8 L 360 8 L 360 94 L 271 94 Z M 271 8 "/>
</clipPath>
<clipPath id="clip22">
  <path d="M 353.1875 22.472656 C 340.285156 5.332031 312.945312 4.171875 292.125 19.878906 C 271.300781 35.589844 264.878906 62.214844 277.78125 79.351562 C 290.683594 96.492188 318.023438 97.652344 338.847656 81.945312 C 359.667969 66.234375 366.089844 39.609375 353.1875 22.472656 Z M 353.1875 22.472656 "/>
</clipPath>
<clipPath id="clip23">
  <path d="M 224.679688 42.414062 L 332.28125 -38.757812 L 406.738281 60.148438 L 299.136719 141.316406 Z M 224.679688 42.414062 "/>
</clipPath>
<clipPath id="clip24">
  <path d="M 353.1875 22.472656 C 340.285156 5.332031 312.945312 4.171875 292.125 19.878906 C 271.300781 35.589844 264.878906 62.214844 277.78125 79.351562 C 290.683594 96.492188 318.023438 97.652344 338.847656 81.945312 C 359.667969 66.234375 366.089844 39.609375 353.1875 22.472656 Z M 353.1875 22.472656 "/>
</clipPath>
<clipPath id="clip25">
  <path d="M 271 8 L 360 8 L 360 94 L 271 94 Z M 271 8 "/>
</clipPath>
<clipPath id="clip26">
  <path d="M 353.1875 22.472656 C 340.285156 5.332031 312.945312 4.171875 292.125 19.878906 C 271.300781 35.589844 264.878906 62.214844 277.78125 79.351562 C 290.683594 96.492188 318.023438 97.652344 338.847656 81.945312 C 359.667969 66.234375 366.089844 39.609375 353.1875 22.472656 Z M 353.1875 22.472656 "/>
</clipPath>
<clipPath id="clip27">
  <path d="M 224.679688 42.414062 L 332.28125 -38.757812 L 406.738281 60.148438 L 299.136719 141.316406 Z M 224.679688 42.414062 "/>
</clipPath>
<clipPath id="clip28">
  <path d="M 293 26 L 341 26 L 341 75 L 293 75 Z M 293 26 "/>
</clipPath>
<clipPath id="clip29">
  <path d="M 353.1875 22.472656 C 340.285156 5.332031 312.945312 4.171875 292.125 19.878906 C 271.300781 35.589844 264.878906 62.214844 277.78125 79.351562 C 290.683594 96.492188 318.023438 97.652344 338.847656 81.945312 C 359.667969 66.234375 366.089844 39.609375 353.1875 22.472656 Z M 353.1875 22.472656 "/>
</clipPath>
<clipPath id="clip30">
  <path d="M 224.679688 42.414062 L 332.28125 -38.757812 L 406.738281 60.148438 L 299.136719 141.316406 Z M 224.679688 42.414062 "/>
</clipPath>
</defs>
<g id="surface1">
<path style=" stroke:none;fill-rule:nonzero;fill:rgb(0%,0%,0%);fill-opacity:1;" d="M 214.246094 51.007812 L 233.953125 49.734375 C 234.402344 52.957031 235.226562 55.359375 236.574219 57.085938 C 238.75 59.785156 241.746094 61.136719 245.71875 61.136719 C 248.640625 61.136719 250.960938 60.460938 252.535156 59.035156 C 254.035156 57.910156 254.933594 56.109375 254.933594 54.234375 C 254.933594 52.433594 254.109375 50.707031 252.6875 49.582031 C 251.1875 48.234375 247.664062 46.882812 242.121094 45.683594 C 233.054688 43.65625 226.535156 40.957031 222.710938 37.507812 C 218.890625 34.28125 216.71875 29.554688 216.867188 24.527344 C 216.867188 21.078125 217.917969 17.628906 219.863281 14.777344 C 222.113281 11.550781 225.183594 9 228.855469 7.578125 C 232.828125 5.851562 238.375 4.949219 245.34375 4.949219 C 253.886719 4.949219 260.40625 6.527344 264.902344 9.75 C 269.398438 12.902344 272.09375 18.003906 272.917969 24.980469 L 253.433594 26.105469 C 252.910156 23.105469 251.863281 20.929688 250.136719 19.503906 C 248.414062 18.078125 246.167969 17.402344 243.246094 17.402344 C 240.847656 17.402344 239.046875 17.929688 237.847656 18.902344 C 236.726562 19.804688 235.976562 21.152344 236.050781 22.652344 C 236.050781 23.777344 236.648438 24.828125 237.550781 25.503906 C 238.523438 26.402344 240.847656 27.230469 244.519531 27.980469 C 253.585938 29.929688 260.03125 31.878906 264 33.90625 C 267.972656 35.929688 270.820312 38.40625 272.542969 41.332031 C 274.34375 44.332031 275.242188 47.78125 275.167969 51.308594 C 275.167969 55.507812 273.96875 59.710938 271.570312 63.234375 C 269.097656 66.910156 265.648438 69.761719 261.601562 71.488281 C 257.332031 73.363281 251.9375 74.335938 245.492188 74.335938 C 234.101562 74.335938 226.234375 72.160156 221.8125 67.734375 C 217.390625 63.308594 214.769531 57.757812 214.246094 51.007812 Z M 5.097656 73.210938 L 5.097656 6.152344 L 39.644531 6.152344 C 46.015625 6.152344 50.960938 6.675781 54.332031 7.800781 C 57.628906 8.851562 60.550781 11.027344 62.5 13.953125 C 64.671875 17.179688 65.722656 20.929688 65.648438 24.828125 C 65.871094 31.429688 62.5 37.730469 56.730469 41.03125 C 54.480469 42.308594 52.007812 43.207031 49.460938 43.65625 C 51.335938 44.183594 53.207031 45.082031 54.855469 46.132812 C 56.128906 47.183594 57.179688 48.382812 58.152344 49.65625 C 59.277344 50.933594 60.25 52.359375 61.074219 53.859375 L 71.117188 73.285156 L 47.585938 73.285156 L 36.496094 52.660156 C 35.074219 50.03125 33.875 48.308594 32.75 47.484375 C 31.25 46.433594 29.453125 45.90625 27.65625 45.90625 L 25.855469 45.90625 L 25.855469 73.136719 L 5.097656 73.136719 Z M 25.855469 33.304688 L 34.625 33.304688 C 36.496094 33.15625 38.296875 32.855469 40.09375 32.40625 C 41.441406 32.179688 42.640625 31.429688 43.464844 30.304688 C 45.488281 27.605469 45.191406 23.777344 42.714844 21.453125 C 41.367188 20.328125 38.746094 19.726562 35 19.726562 L 25.855469 19.726562 Z M 0.378906 130.671875 L 20.085938 129.394531 C 20.535156 132.621094 21.359375 135.023438 22.707031 136.746094 C 24.808594 139.449219 27.878906 140.871094 31.851562 140.871094 C 34.773438 140.871094 37.097656 140.199219 38.671875 138.773438 C 40.167969 137.574219 41.066406 135.847656 41.066406 133.972656 C 41.066406 132.171875 40.242188 130.445312 38.820312 129.320312 C 37.320312 127.972656 33.800781 126.621094 28.179688 125.421875 C 19.113281 123.394531 12.59375 120.695312 8.769531 117.242188 C 4.949219 114.019531 2.777344 109.292969 2.925781 104.265625 C 2.925781 100.816406 3.976562 97.367188 5.921875 94.515625 C 8.171875 91.289062 11.242188 88.738281 14.914062 87.3125 C 18.886719 85.589844 24.433594 84.6875 31.402344 84.6875 C 39.945312 84.6875 46.464844 86.265625 50.960938 89.488281 C 55.457031 92.714844 58.078125 97.742188 58.902344 104.71875 L 39.417969 105.84375 C 38.894531 102.839844 37.847656 100.667969 36.121094 99.242188 C 34.472656 97.816406 32.152344 97.140625 29.226562 97.214844 C 26.832031 97.214844 25.03125 97.742188 23.832031 98.792969 C 22.632812 99.691406 21.960938 101.042969 22.035156 102.542969 C 22.035156 103.667969 22.632812 104.71875 23.535156 105.390625 C 24.507812 106.292969 26.832031 107.117188 30.503906 107.867188 C 39.570312 109.816406 46.015625 111.769531 49.984375 113.792969 C 53.957031 115.820312 56.804688 118.292969 58.527344 121.21875 C 60.328125 124.21875 61.226562 127.671875 61.226562 131.121094 C 61.226562 135.320312 59.953125 139.449219 57.628906 142.972656 C 55.15625 146.648438 51.710938 149.5 47.664062 151.222656 C 43.390625 153.101562 37.996094 154.074219 31.550781 154.074219 C 20.160156 154.074219 12.292969 151.898438 7.871094 147.472656 C 3.449219 142.972656 0.976562 137.421875 0.378906 130.671875 Z M 0.378906 130.671875 "/>
<path style=" stroke:none;fill-rule:nonzero;fill:rgb(0%,0%,0%);fill-opacity:1;" d="M 100.042969 125.421875 L 118.175781 130.894531 C 117.203125 135.472656 115.179688 139.824219 112.40625 143.648438 C 109.859375 147.023438 106.488281 149.648438 102.664062 151.375 C 98.769531 153.101562 93.824219 154 87.828125 154 C 80.558594 154 74.5625 152.949219 69.992188 150.847656 C 65.347656 148.75 61.375 145 58.003906 139.671875 C 54.632812 134.347656 52.984375 127.519531 52.984375 119.195312 C 52.984375 108.09375 55.90625 99.542969 61.824219 93.613281 C 67.746094 87.6875 76.0625 84.6875 86.855469 84.6875 C 95.320312 84.6875 101.914062 86.414062 106.785156 89.789062 C 111.582031 93.238281 115.179688 98.492188 117.578125 105.542969 L 99.292969 109.59375 C 98.84375 108.015625 98.167969 106.441406 97.269531 105.09375 C 96.144531 103.515625 94.722656 102.316406 93 101.417969 C 91.273438 100.515625 89.328125 100.140625 87.378906 100.140625 C 82.65625 100.140625 79.058594 102.015625 76.585938 105.84375 C 74.714844 108.617188 73.738281 113.042969 73.738281 119.042969 C 73.738281 126.46875 74.863281 131.570312 77.113281 134.347656 C 79.359375 137.121094 82.507812 138.472656 86.628906 138.472656 C 90.601562 138.472656 93.597656 137.347656 95.621094 135.171875 C 97.644531 132.847656 99.144531 129.621094 100.042969 125.421875 Z M 142.382812 85.8125 L 163.0625 85.8125 L 163.0625 109.292969 L 185.695312 109.292969 L 185.695312 85.8125 L 206.527344 85.8125 L 206.527344 152.875 L 185.695312 152.875 L 185.695312 125.71875 L 163.0625 125.71875 L 163.0625 152.875 L 142.382812 152.875 Z M 142.382812 85.8125 "/>
<path style=" stroke:none;fill-rule:nonzero;fill:rgb(0%,0%,0%);fill-opacity:1;" d="M 203.679688 119.34375 C 203.679688 108.394531 206.75 99.839844 212.820312 93.765625 C 218.890625 87.6875 227.433594 84.613281 238.296875 84.613281 C 249.464844 84.613281 258.007812 87.613281 264.078125 93.613281 C 270.144531 99.617188 273.144531 108.015625 273.144531 118.820312 C 273.144531 126.695312 271.792969 133.070312 269.171875 138.097656 C 266.625 143.046875 262.652344 147.097656 257.78125 149.800781 C 252.761719 152.574219 246.542969 154 239.121094 154 C 231.554688 154 225.335938 152.800781 220.390625 150.398438 C 215.292969 147.847656 211.097656 143.875 208.324219 138.996094 C 205.25 133.746094 203.679688 127.21875 203.679688 119.34375 Z M 224.359375 119.417969 C 224.359375 126.171875 225.632812 131.046875 228.105469 134.046875 C 230.582031 136.972656 234.027344 138.472656 238.375 138.472656 C 242.792969 138.472656 246.242188 137.046875 248.714844 134.121094 C 251.1875 131.195312 252.386719 126.019531 252.386719 118.519531 C 252.386719 112.21875 251.113281 107.566406 248.566406 104.71875 C 246.015625 101.792969 242.570312 100.367188 238.222656 100.367188 C 234.402344 100.214844 230.730469 101.867188 228.183594 104.792969 C 225.632812 107.71875 224.359375 112.59375 224.359375 119.417969 Z M 294.351562 119.34375 C 294.351562 108.394531 297.421875 99.839844 303.492188 93.765625 C 309.5625 87.6875 318.105469 84.613281 328.96875 84.613281 C 340.136719 84.613281 348.753906 87.613281 354.75 93.613281 C 360.742188 99.617188 363.816406 108.015625 363.816406 118.820312 C 363.816406 126.695312 362.464844 133.070312 359.84375 138.097656 C 357.296875 143.046875 353.324219 147.097656 348.453125 149.800781 C 343.433594 152.574219 337.214844 154 329.792969 154 C 322.226562 154 316.007812 152.800781 311.0625 150.398438 C 305.964844 147.847656 301.769531 143.875 298.996094 138.996094 C 295.925781 133.746094 294.351562 127.21875 294.351562 119.34375 Z M 315.03125 119.417969 C 315.03125 126.171875 316.304688 131.046875 318.777344 134.046875 C 321.253906 136.972656 324.699219 138.472656 329.046875 138.472656 C 333.464844 138.472656 336.914062 137.046875 339.386719 134.121094 C 341.859375 131.195312 343.058594 126.019531 343.058594 118.519531 C 343.058594 112.21875 341.785156 107.566406 339.238281 104.71875 C 336.6875 101.792969 333.242188 100.367188 328.894531 100.367188 C 325.074219 100.214844 321.328125 101.867188 318.855469 104.792969 C 316.304688 107.71875 315.03125 112.59375 315.03125 119.417969 Z M 315.03125 119.417969 "/>
<path style=" stroke:none;fill-rule:nonzero;fill:rgb(0%,0%,0%);fill-opacity:1;" d="M 361.640625 85.8125 L 382.324219 85.8125 L 382.324219 136.371094 L 414.621094 136.371094 L 414.621094 152.875 L 361.566406 152.875 L 361.566406 85.8125 Z M 361.640625 85.8125 "/>
<path style=" stroke:none;fill-rule:nonzero;fill:rgb(100%,100%,100%);fill-opacity:1;" d="M 353.1875 22.472656 C 340.285156 5.332031 312.945312 4.171875 292.125 19.878906 C 271.300781 35.589844 264.878906 62.214844 277.78125 79.351562 C 290.683594 96.492188 318.023438 97.652344 338.847656 81.945312 C 359.667969 66.234375 366.089844 39.609375 353.1875 22.472656 Z M 353.1875 22.472656 "/>
<g clip-path="url(#clip1)" clip-rule="nonzero">
<g clip-path="url(#clip2)" clip-rule="nonzero">
<path style=" stroke:none;fill-rule:nonzero;fill:rgb(100%,100%,100%);fill-opacity:1;" d="M 224.679688 42.414062 L 332.28125 -38.757812 L 406.738281 60.148438 L 299.136719 141.316406 Z M 224.679688 42.414062 "/>
<g clip-path="url(#clip3)" clip-rule="nonzero">
<path style=" stroke:none;fill-rule:nonzero;fill:rgb(100%,100%,100%);fill-opacity:1;" d="M 353.1875 22.472656 C 340.285156 5.332031 312.945312 4.171875 292.125 19.878906 C 271.300781 35.589844 264.878906 62.214844 277.78125 79.351562 C 290.683594 96.492188 318.023438 97.652344 338.847656 81.945312 C 359.667969 66.234375 366.089844 39.609375 353.1875 22.472656 Z M 353.1875 22.472656 "/>
<g clip-path="url(#clip4)" clip-rule="nonzero">
<path style=" stroke:none;fill-rule:nonzero;fill:rgb(100%,100%,100%);fill-opacity:1;" d="M 254.640625 49.015625 L 329.988281 -7.820312 L 376.753906 54.304688 L 301.410156 111.140625 Z M 254.640625 49.015625 "/>
<g clip-path="url(#clip5)" clip-rule="nonzero">
<path style="fill-rule:nonzero;fill:rgb(100%,100%,100%);fill-opacity:1;stroke-width:4;stroke-linecap:butt;stroke-linejoin:miter;stroke:rgb(0%,0%,0%);stroke-opacity:1;stroke-miterlimit:10;" d="M 483.498573 67.901432 C 483.499976 39.290242 455.293362 16.097653 420.502248 16.098916 C 385.703836 16.1012 357.498268 39.290192 357.499998 67.897224 C 357.498595 96.508414 385.705209 119.701002 420.500487 119.702877 C 455.294735 119.697456 483.500303 96.508463 483.498573 67.901432 Z M 483.498573 67.901432 " transform="matrix(0.598454,-0.451445,0.450984,0.599066,33.213393,200.068234)"/>
</g>
</g>
</g>
</g>
</g>
<g clip-path="url(#clip6)" clip-rule="nonzero">
<g clip-path="url(#clip7)" clip-rule="nonzero">
<g clip-path="url(#clip8)" clip-rule="nonzero">
<g clip-path="url(#clip9)" clip-rule="nonzero">
<g clip-path="url(#clip10)" clip-rule="nonzero">
<path style="fill:none;stroke-width:4;stroke-linecap:butt;stroke-linejoin:miter;stroke:rgb(0%,0%,0%);stroke-opacity:1;stroke-miterlimit:10;" d="M 357.798919 16.997595 L 483.700573 16.998294 L 483.699406 120.699148 L 357.801915 120.701585 Z M 357.798919 16.997595 " transform="matrix(0.598462,-0.451435,0.450973,0.599074,32.846148,200.355605)"/>
</g>
</g>
</g>
</g>
</g>
<g clip-path="url(#clip11)" clip-rule="nonzero">
<g clip-path="url(#clip12)" clip-rule="nonzero">
<g clip-path="url(#clip13)" clip-rule="nonzero">
<g clip-path="url(#clip14)" clip-rule="nonzero">
<path style="fill:none;stroke-width:4;stroke-linecap:butt;stroke-linejoin:miter;stroke:rgb(0%,0%,0%);stroke-opacity:1;stroke-miterlimit:10;" d="M 483.498573 67.901432 C 483.499976 39.290242 455.293362 16.097653 420.502248 16.098916 C 385.703836 16.1012 357.498268 39.290192 357.499998 67.897224 C 357.498595 96.508414 385.705209 119.701002 420.500487 119.702877 C 455.294735 119.697456 483.500303 96.508463 483.498573 67.901432 Z M 483.498573 67.901432 " transform="matrix(0.598454,-0.451445,0.450984,0.599066,33.213393,200.068234)"/>
<path style=" stroke:none;fill-rule:nonzero;fill:rgb(100%,100%,100%);fill-opacity:1;" d="M 254.640625 49.015625 L 329.988281 -7.820312 L 376.753906 54.304688 L 301.410156 111.140625 Z M 254.640625 49.015625 "/>
<g clip-path="url(#clip15)" clip-rule="nonzero">
<path style="fill-rule:nonzero;fill:rgb(100%,100%,100%);fill-opacity:1;stroke-width:4;stroke-linecap:butt;stroke-linejoin:miter;stroke:rgb(0%,0%,0%);stroke-opacity:1;stroke-miterlimit:10;" d="M 483.498573 67.901432 C 483.499976 39.290242 455.293362 16.097653 420.502248 16.098916 C 385.703836 16.1012 357.498268 39.290192 357.499998 67.897224 C 357.498595 96.508414 385.705209 119.701002 420.500487 119.702877 C 455.294735 119.697456 483.500303 96.508463 483.498573 67.901432 Z M 483.498573 67.901432 " transform="matrix(0.598454,-0.451445,0.450984,0.599066,33.213393,200.068234)"/>
</g>
</g>
</g>
</g>
</g>
<g clip-path="url(#clip16)" clip-rule="nonzero">
<g clip-path="url(#clip17)" clip-rule="nonzero">
<g clip-path="url(#clip18)" clip-rule="nonzero">
<g clip-path="url(#clip19)" clip-rule="nonzero">
<g clip-path="url(#clip20)" clip-rule="nonzero">
<path style="fill:none;stroke-width:4;stroke-linecap:butt;stroke-linejoin:miter;stroke:rgb(0%,0%,0%);stroke-opacity:1;stroke-miterlimit:10;" d="M 357.798919 16.997595 L 483.700573 16.998294 L 483.699406 120.699148 L 357.801915 120.701585 Z M 357.798919 16.997595 " transform="matrix(0.598462,-0.451435,0.450973,0.599074,32.846148,200.355605)"/>
</g>
</g>
</g>
</g>
</g>
<g clip-path="url(#clip21)" clip-rule="nonzero">
<g clip-path="url(#clip22)" clip-rule="nonzero">
<g clip-path="url(#clip23)" clip-rule="nonzero">
<g clip-path="url(#clip24)" clip-rule="nonzero">
<path style="fill:none;stroke-width:4;stroke-linecap:butt;stroke-linejoin:miter;stroke:rgb(0%,0%,0%);stroke-opacity:1;stroke-miterlimit:10;" d="M 330.899474 -14.197476 L 510.700629 -14.200048 L 510.699843 150.900115 L 330.901821 150.898528 Z M 330.899474 -14.197476 " transform="matrix(0.598454,-0.451445,0.450984,0.599066,33.054402,200.302203)"/>
</g>
</g>
</g>
</g>
<g clip-path="url(#clip25)" clip-rule="nonzero">
<g clip-path="url(#clip26)" clip-rule="nonzero">
<g clip-path="url(#clip27)" clip-rule="nonzero">
<path style="fill:none;stroke-width:4;stroke-linecap:butt;stroke-linejoin:miter;stroke:rgb(0%,0%,0%);stroke-opacity:1;stroke-miterlimit:10;" d="M 483.498573 67.901432 C 483.499976 39.290242 455.293362 16.097653 420.502248 16.098916 C 385.703836 16.1012 357.498268 39.290192 357.499998 67.897224 C 357.498595 96.508414 385.705209 119.701002 420.500487 119.702877 C 455.294735 119.697456 483.500303 96.508463 483.498573 67.901432 Z M 483.498573 67.901432 " transform="matrix(0.598454,-0.451445,0.450984,0.599066,33.213393,200.068234)"/>
</g>
</g>
</g>
<g clip-path="url(#clip28)" clip-rule="nonzero">
<g clip-path="url(#clip29)" clip-rule="nonzero">
<g clip-path="url(#clip30)" clip-rule="nonzero">
<path style=" stroke:none;fill-rule:nonzero;fill:rgb(0%,0%,0%);fill-opacity:1;" d="M 294.425781 45.984375 L 301.917969 40.730469 L 311.136719 53.859375 C 312.710938 55.960938 313.910156 58.210938 314.808594 60.683594 C 315.332031 62.558594 315.183594 64.585938 314.433594 66.386719 C 313.457031 68.636719 311.886719 70.511719 309.785156 71.863281 C 307.3125 73.585938 305.214844 74.5625 303.417969 74.863281 C 301.695312 75.164062 299.894531 74.863281 298.246094 74.113281 C 296.449219 73.210938 294.875 71.9375 293.675781 70.285156 L 300.121094 64.285156 C 300.644531 65.109375 301.320312 65.859375 302.070312 66.460938 C 302.59375 66.835938 303.191406 67.0625 303.867188 67.0625 C 304.390625 67.0625 304.917969 66.835938 305.289062 66.535156 C 306.039062 66.085938 306.566406 65.1875 306.488281 64.285156 C 306.265625 63.011719 305.742188 61.734375 304.917969 60.761719 Z M 316.90625 54.308594 L 323.726562 48.90625 C 324.472656 49.808594 325.449219 50.484375 326.496094 50.859375 C 327.996094 51.308594 329.570312 51.007812 330.84375 50.03125 C 331.742188 49.433594 332.492188 48.609375 332.792969 47.558594 C 333.242188 46.207031 332.492188 44.707031 331.144531 44.257812 C 330.917969 44.183594 330.695312 44.105469 330.46875 44.105469 C 329.570312 44.03125 327.996094 44.40625 325.671875 45.382812 C 321.851562 46.957031 318.855469 47.558594 316.605469 47.332031 C 314.433594 47.109375 312.410156 45.984375 311.210938 44.105469 C 310.3125 42.832031 309.863281 41.332031 309.785156 39.832031 C 309.785156 38.105469 310.238281 36.382812 311.210938 34.957031 C 312.632812 32.929688 314.359375 31.203125 316.457031 29.855469 C 319.605469 27.679688 322.375 26.628906 324.773438 26.628906 C 327.171875 26.628906 329.421875 27.753906 331.519531 30.078125 L 324.773438 35.40625 C 323.425781 33.679688 320.878906 33.304688 319.152344 34.65625 L 318.929688 34.878906 C 318.179688 35.332031 317.65625 36.003906 317.355469 36.832031 C 317.128906 37.429688 317.28125 38.105469 317.65625 38.632812 C 317.953125 39.007812 318.40625 39.304688 318.929688 39.304688 C 319.527344 39.382812 320.578125 39.082031 322.078125 38.40625 C 325.824219 36.832031 328.671875 35.929688 330.617188 35.628906 C 332.269531 35.332031 333.992188 35.480469 335.566406 36.15625 C 336.988281 36.757812 338.1875 37.804688 339.011719 39.082031 C 340.0625 40.582031 340.660156 42.382812 340.734375 44.257812 C 340.808594 46.207031 340.285156 48.082031 339.238281 49.734375 C 337.886719 51.757812 336.164062 53.484375 334.140625 54.832031 C 330.019531 57.683594 326.648438 58.882812 323.949219 58.433594 C 321.027344 57.984375 318.628906 56.484375 316.90625 54.308594 Z M 316.90625 54.308594 "/>
</g>
</g>
</g>
</g>
</svg>
